<?xml version="1.0" standalone="no"?><!DOCTYPE svg PUBLIC "-//W3C//DTD SVG 1.1//EN" "http://www.w3.org/Graphics/SVG/1.1/DTD/svg11.dtd"><svg t="1681335625717" class="icon" viewBox="0 0 1024 1024" version="1.1" xmlns="http://www.w3.org/2000/svg" p-id="15179" width="200" height="200" data-spm-anchor-id="a313x.7781069.0.i32" xmlns:xlink="http://www.w3.org/1999/xlink"><path d="M896.6 245.2v68.2c0 3.2-0.2 6.3-0.5 9.4C924.8 381.1 940 445.5 940 512c0 57.8-11.3 113.8-33.6 166.6-21.6 51-52.4 96.7-91.7 136s-85.1 70.2-136 91.7C625.8 928.7 569.8 940 512 940c-30.3 0-60.8-3.2-90.5-9.5-94.2-20.3-179.8-72.8-241.1-147.8-5.2-6.4-10.2-12.9-15.1-19.6-13.4-9.1-22.9-23.4-25.7-39.8-11.8-20.8-21.9-42.5-30.1-65.1C92.6 611.4 84 562.2 84 512c0-57.8 11.3-113.8 33.6-166.6 6.3-14.8 13.3-29.2 21.2-43.2v-72.7c-23.4 30.8-42.8 64.4-58 100.3C56.4 387.5 44 448.8 44 512c0 54.9 9.4 108.7 28 159.8 18 49.4 44 95.2 77.4 136.1 67 82 160.7 139.4 263.7 161.6 32.5 6.9 65.8 10.4 98.9 10.4 63.2 0 124.5-12.4 182.2-36.8C749.9 919.5 800 885.8 843 842.8s76.7-93 100.3-148.8c24.4-57.7 36.8-119 36.8-182.2-0.1-96.2-29.3-188.7-83.5-266.6z" fill="#10b981" p-id="15180" data-spm-anchor-id="a313x.7781069.0.i22" class=""></path><path d="M466.3 515.9V305.2l-35.5 3.9v146.5l-98.1-135.9-34.6 3.8v210.8l35.5-3.9V383.7l44.5 61.8 53.6 74.2zM165.3 763.1c-9.3-12.9-17.9-26.2-25.7-39.8 7.8 13.7 16.4 27 25.7 39.8z" fill="#10b981" p-id="15181" data-spm-anchor-id="a313x.7781069.0.i23" class=""></path><path d="M196.3 733l183.3 25L563 782.7c0.9 0.1 1.8 0.2 2.7 0.2 4.8 0 9.5-1.7 13.2-4.9 4.3-3.8 6.8-9.3 6.8-15.1v-36.1h204.2c11 0 20-9 20-20v-7.6c25.8-0.3 46.7-21.4 46.7-47.3V545.4c0-11.9-5-22.6-13-30.2 8.1-8.5 13-20 13-32.6V376.2c0-11.9-5-22.6-13-30.2 8.1-8.5 13-20 13-32.6V207c0-22.9-18.6-41.5-41.5-41.5H810V161c0-11-9-20-20-20H585.7v-36.1c0-5.8-2.5-11.3-6.8-15.1s-10.1-5.5-15.8-4.8l-183.4 24.8-183.4 24.7c-9.9 1.3-17.3 9.8-17.3 19.8v558.9c0 10 7.4 18.5 17.3 19.8z m613.6-73.8V543.8h5.1c0.9 0 1.5 0.7 1.5 1.5v106.6h0.1c0 3.8-2.9 7-6.7 7.3z m0-169.2V374.6h5.1c0.9 0 1.5 0.7 1.5 1.5v106.5c0.1 3.9-2.9 7.1-6.6 7.4z m-0.1-284.6h5.2c0.9 0 1.5 0.7 1.5 1.5v106.5c0 3.8-2.9 7-6.7 7.3V205.4zM585.7 599h159.2v-32.9H585.7v-80.9h159.2v-32.9H585.7v-73.8h159.2v-32.9H585.7v-73.7h159.2V239H585.7v-58h184.2V686.8H585.7V599zM218.8 171.9l166.1-22.4 160.8-21.7V740l-160.8-21.7-166.1-22.5V171.9z" fill="#10b981" p-id="15182" data-spm-anchor-id="a313x.7781069.0.i21" class=""></path></svg>