<?xml version="1.0" standalone="no"?><!DOCTYPE svg PUBLIC "-//W3C//DTD SVG 1.1//EN" "http://www.w3.org/Graphics/SVG/1.1/DTD/svg11.dtd"><svg t="1681335409579" class="icon" viewBox="0 0 1024 1024" version="1.1" xmlns="http://www.w3.org/2000/svg" p-id="2407" xmlns:xlink="http://www.w3.org/1999/xlink" width="200" height="200"><path d="M960 512c0 247.4-200.6 448-448 448-32.5 0-64.2-3.5-94.7-10C215.3 906.5 71 759.4 71 544.5c0-247.4 200.6-448 448-448 111.3 0 213 40.5 291.4 107.7 11.5 9.8 22.5 20.3 32.9 31.2 52.1 54.7 90.6 122.6 109.8 198.2 4.6 25.4 6.9 51.6 6.9 78.4z" fill="#4DBCFB" p-id="2408"></path><path d="M960 512c0 247.4-200.6 448-448 448-32.5 0-64.2-3.5-94.7-10L186.2 744.4l581.2-538.1 43-2.1c11.5 9.8 22.5 20.3 32.9 31.2 52.1 54.7 90.6 122.6 109.8 198.2 4.6 25.4 6.9 51.6 6.9 78.4z" fill="#3892CB" p-id="2409"></path><path d="M486.7 170.2h314v567.4h-314z" fill="#E8E4EF" p-id="2410"></path><path d="M496.1 251.3h257.8v34.2H496.1zM496.1 362.1h257.8v34.2H496.1zM496.1 473h257.8v34.2H496.1zM496.1 591.3h257.8v34.2H496.1z" fill="#DD7B05" p-id="2411"></path><path d="M567.6 111.9v684l-190.7-25.7-190.7-25.8v-581l190.7-25.7z" fill="#6F47DD" p-id="2412"></path><path d="M567.6 111.9v684l-190.7-25.7V137.7z" fill="#5F2B88" p-id="2413" data-spm-anchor-id="a313x.7781069.0.i3" class="selected"></path><path d="M321.2 385.6l55.7 77.3 53.9 74.7 28.3-3.1V325.9l-26.5 2.9v163.8l-55.7-77.2-53.9-74.7-28.3 3.1v208.6l26.5-2.9V385.6" fill="#FFFFFF" p-id="2414"></path><path d="M459.1 325.9v208.6l-28.3 3.1-53.9-74.7v-47.5l55.7 77.1V328.8zM820.9 357.1h-20.2V195.6h26.1c12.4 0 22.4 10 22.4 22.4v110.7c0 15.7-12.7 28.4-28.3 28.4z" fill="#E8E4EF" p-id="2415"></path><path d="M820.9 533h-20.2V371.5h26.1c12.4 0 22.4 10 22.4 22.4v110.7c0 15.7-12.7 28.4-28.3 28.4zM820.9 708.9h-20.2V547.4h26.1c12.4 0 22.4 10 22.4 22.4v110.7c0 15.7-12.7 28.4-28.3 28.4z" fill="#3D2652" p-id="2416"></path></svg>