<svg width="282" height="291" xmlns="http://www.w3.org/2000/svg" xmlns:xlink="http://www.w3.org/1999/xlink" overflow="hidden"><g transform="translate(-371 -174)"><path d="M559 313C559 367.124 517.139 411 465.5 411 434.333 411 403.167 411 372 411 372 378.333 372 345.667 372 313 372 258.876 413.861 215 465.5 215 517.139 215 559 258.876 559 313Z" fill="#0F54FF" fill-rule="evenodd"/><path d="M465 313.5C465 259.652 506.861 216 558.5 216 610.139 216 652 259.652 652 313.5 652 367.348 610.139 411 558.5 411 506.861 411 465 367.348 465 313.5Z" fill="#A5DDFF" fill-rule="evenodd" fill-opacity="0.501961"/></g></svg>