<?xml version="1.0" standalone="no"?><!DOCTYPE svg PUBLIC "-//W3C//DTD SVG 1.1//EN" "http://www.w3.org/Graphics/SVG/1.1/DTD/svg11.dtd"><svg t="1681578139049" class="icon" viewBox="0 0 1024 1024" version="1.1" xmlns="http://www.w3.org/2000/svg" p-id="31069" xmlns:xlink="http://www.w3.org/1999/xlink" width="200" height="200"><path d="M766.59712 839.61856h-432.384a37.28384 37.28384 0 0 1-37.28384-37.28384V221.5424a37.28384 37.28384 0 0 1 37.28384-37.28384h432.384a37.28384 37.28384 0 0 1 37.28384 37.28384v580.79232a37.28384 37.28384 0 0 1-37.28384 37.28384z" fill="#059669" p-id="31070" data-spm-anchor-id="a313x.7781069.0.i56" class=""></path><path d="M792.94976 81.92H303.42144a108.07296 108.07296 0 0 0-108.17024 107.73504v48.256H122.88v65.94048h72.3712v94.06976H122.88V463.872h72.3712v94.0544H122.88v65.94048h72.3712v94.06976H122.88V783.872h72.3712v55.58784A108.07296 108.07296 0 0 0 303.42144 947.2h489.52832A108.07808 108.07808 0 0 0 901.12 839.46496V189.65504A108.07296 108.07296 0 0 0 792.94976 81.92z m41.984 757.54496a41.92256 41.92256 0 0 1-41.984 41.79456H303.42144a41.92768 41.92768 0 0 1-41.984-41.79456V189.65504a41.92768 41.92768 0 0 1 41.984-41.79456h489.52832a41.92768 41.92768 0 0 1 41.984 41.79456v649.80992z m-260.17792-462.66368H508.54912V483.328H401.58208v65.9456h106.96704v106.53184h66.20672V549.2736h106.96704V483.328h-106.96704V376.80128z" fill="#242F44" p-id="31071"></path></svg>