<?xml version="1.0" standalone="no"?><!DOCTYPE svg PUBLIC "-//W3C//DTD SVG 1.1//EN" "http://www.w3.org/Graphics/SVG/1.1/DTD/svg11.dtd"><svg t="1681335467861" class="icon" viewBox="0 0 1024 1024" version="1.1" xmlns="http://www.w3.org/2000/svg" p-id="8475" xmlns:xlink="http://www.w3.org/1999/xlink" width="200" height="200"><path d="M1024 0v1024H0V0z" fill="#F5F5F5" p-id="8476"></path><path d="M723.263043 716.912076c116.55892 67.245531 116.55892 176.706312 0 243.951842a466.982853 466.982853 0 0 1-422.526086 0c-116.55892-67.245531-116.55892-176.706312 0-243.951842a466.982853 466.982853 0 0 1 422.526086 0z" fill="#080A0D" p-id="8477"></path><path d="M709.813937 725.878147c108.340022 62.388909 108.340022 164.004378 0 226.393287a433.360088 433.360088 0 0 1-392.265597 0c-108.340022-62.388909-108.340022-164.004378 0-226.393287a433.360088 433.360088 0 0 1 392.265597 0z" fill="#0B0E14" p-id="8478"></path><path d="M693.002554 734.470631c100.121124 57.905874 100.121124 151.302444 0 209.208318a400.110908 400.110908 0 0 1-362.005108 0c-100.121124-57.905874-100.121124-151.302444 0-209.208318a399.737322 399.737322 0 0 1 362.005108 0z" fill="#0F131B" p-id="8479"></path><path d="M677.685516 743.436702c91.528639 53.049252 91.528639 138.600511 0 191.649763a366.488143 366.488143 0 0 1-331.744619 0c-91.528639-53.049252-91.528639-138.600511 0-191.649763a366.488143 366.488143 0 0 1 331.744619 0z" fill="#131822" p-id="8480"></path><path d="M662.742065 752.029186c83.309741 48.19263 83.309741 125.898577 0 174.091208a332.865378 332.865378 0 0 1-301.110544 0c-83.309741-48.19263-83.309741-125.898577 0-174.091208a332.865378 332.865378 0 0 1 301.110544 0z" fill="#171D29" p-id="8481"></path><path d="M647.425027 760.995257c74.717256 43.336009 74.717256 112.075885 0 156.532653a298.869026 298.869026 0 0 1-270.850054 0c-74.717256-43.336009-74.717256-112.075885 0-156.532653a298.869026 298.869026 0 0 1 270.850054 0z" fill="#1B2230" p-id="8482"></path><path d="M632.481576 769.587742c66.498358 37.358628 66.498358 100.49471 0 138.974097a265.619847 265.619847 0 0 1-240.589566 0c-66.498358-37.358628-66.498358-100.49471 0-138.974097a265.619847 265.619847 0 0 1 240.589566 0z" fill="#1F2737" p-id="8483"></path><path d="M617.164538 778.553812c57.905874 33.622765 57.905874 87.792776 0 121.415542a231.997081 231.997081 0 0 1-210.329076 0c-57.905874-33.622765-57.905874-87.792776 0-121.415542a232.370668 232.370668 0 0 1 210.329076 0z" fill="#232C3F" p-id="8484"></path><path d="M601.847501 787.146297c49.686976 28.766144 49.686976 74.717256 0 103.856986a198.747902 198.747902 0 0 1-179.695002 0c-49.686976-28.766144-49.686976-74.717256 0-103.856986a198.747902 198.747902 0 0 1 179.695002 0z" fill="#273246" p-id="8485"></path><path d="M586.90405 796.112368a45.577526 45.577526 0 0 1 0 86.298431 165.125137 165.125137 0 0 1-149.434513 0 45.577526 45.577526 0 0 1 0-86.298431 165.125137 165.125137 0 0 1 149.434513 0z" fill="#2B374D" p-id="8486"></path><path d="M571.587012 804.704852a37.358628 37.358628 0 0 1 0 68.739876 131.502371 131.502371 0 0 1-119.174024 0 37.358628 37.358628 0 0 1 0-68.739876 131.502371 131.502371 0 0 1 119.174024 0z" fill="#2F3C54" p-id="8487"></path><path d="M556.269974 813.670923a26.898212 26.898212 0 0 1 0 51.181321 97.879606 97.879606 0 0 1-88.913535 0 26.898212 26.898212 0 0 1 0-51.181321 97.879606 97.879606 0 0 1 88.913535 0z" fill="#34415C" p-id="8488"></path><path d="M541.326523 821.889821a17.932142 17.932142 0 0 1 0 33.622766 64.630427 64.630427 0 0 1-58.27946 0 17.932142 17.932142 0 0 1 0-33.622766 64.630427 64.630427 0 0 1 58.27946 0z" fill="#384763" p-id="8489"></path><path d="M263.751915 444.19409v-14.569865l2.241518-4.483036 2.98869-4.483035 3.362277-4.109449 3.735863-3.362277 3.735863-2.615104 424.767603-243.204669h8.592484l10.08683 5.97738h-8.592485L293.265232 416.548705l-3.735863 2.615104-3.735863 3.362276-3.362277 4.109449-2.98869 4.483036-2.241517 4.483035v346.314484l2.241517 1.867931-10.086829-5.97738-2.241518-1.867931v-10.08683q-3.362277-159.894929-3.362277-321.657789z" fill="#C93E3E" p-id="8490"></path><path d="M293.265232 416.548705l421.405326-243.578256c10.460416-5.977381 19.426487 0 19.426487 11.207588v323.899307a42.588836 42.588836 0 0 1-19.426487 33.249179l-324.646479 186.793141L293.265232 784.531193c-10.460416 5.977381-19.426487 0-19.426487-11.207588V448.303539a42.588836 42.588836 0 0 1 19.426487-31.754834z" fill="#F2513F" p-id="8491"></path><path d="M718.406421 545.062386l-410.944911 236.480117c-10.460416 5.977381-18.679314 0-18.679314-10.834002v-314.55965a41.468077 41.468077 0 0 1 18.679314-32.502007l410.944911-236.853703c10.460416-5.977381 18.679314 0 18.679314 10.834002v314.933236a41.468077 41.468077 0 0 1-18.679314 32.502007z" fill="#E6EAEB" p-id="8492"></path><path d="M280.563298 450.545057v-13.822693l2.241518-4.483035 2.615104-4.109449 2.98869-3.735863 3.362277-3.362277 3.735862-2.615104 205.098869-116.55892L709.813937 181.93652h8.218898l9.713243 5.603794h-8.218898l-213.691354 123.283473-195.759212 112.075885-3.735862 2.615104-3.362277 3.362276-3.362277 3.735863-2.615104 4.109449-2.241517 4.483035v338.469172l2.241517 1.867932-9.713243-5.603794-2.241518-1.867932v-10.08683q-4.856622-156.159066-4.483035-313.43889z" fill="#BDC3C7" p-id="8493"></path><path d="M518.164174 304.846406l201.736592-116.55892 1.494345-0.747172 1.120759-0.747173 1.494345-0.373586 1.494345-0.373586h1.120759l1.494345-0.373587h1.120759l1.120759 0.373587h0.747173l1.494345 0.747172 9.713243 5.603794-1.494345-0.373586-0.373586-0.373586h-5.230208l-1.494345 0.373586-1.120759 0.747173-1.494345 0.373586-1.494346 0.747173-201.736592 116.55892-9.713243-5.603795z" fill="#BDC3C7" p-id="8494"></path><path d="M729.614009 551.413353L635.09668 605.583364l-107.219263 62.015323V310.450201L635.09668 248.434878l94.143743-54.543597c10.460416-5.977381 18.679314 0 18.679314 10.834002v315.680408a41.468077 41.468077 0 0 1-18.305728 31.007662zM511.813207 665.730755V308.208683l6.350967-3.362277v357.148486l-6.350967 3.735863z" fill="#E6EAEB" p-id="8495"></path><path d="M527.877417 667.598687V310.450201l-9.713243-5.603795v357.148486l9.713243 5.603795z" fill="#A6AEB3" p-id="8496"></path><path d="M291.770887 457.26961v-13.822693l7.098139-4.856621v-4.10945l3.362276-3.735862 3.362277-3.362277 3.735863-2.615104 202.483765-116.55892 11.207588 5.603794-202.857351 116.55892-3.735863 2.615104-3.362276 3.362277-3.362277 3.735863-2.615104 4.109449-2.615104 4.109449V786.399124l2.241518 1.867932L298.869026 784.531193l-2.241518-1.867931v-10.08683q-4.856622-158.400584-4.856621-315.306822z" fill="#BDC3C7" p-id="8497"></path><path d="M320.163444 430.371397l94.143743-54.543597 101.615469-58.653046 7.098139-3.362277v356.401314l-5.603794 4.109449-101.615469 58.653046-95.638088 54.917184c-10.460416 5.977381-18.679314 0-18.679314-10.834003v-314.186063a41.468077 41.468077 0 0 1 18.679314-32.502007zM539.085005 672.455308l204.351697-118.053265a37.358628 37.358628 0 0 0 16.437796-28.766144V288.782196l-60.147391-44.830354-27.271799-6.350966-32.502006 10.460415-100.868297 62.015323z" fill="#E6EAEB" p-id="8498"></path><path d="M722.142284 333.986136l30.634075-17.558555c14.943451-8.218898 23.535936-15.317038 8.218898-27.271798L696.36483 239.095221l25.777454 37.358628z" fill="#F5F9FA" p-id="8499"></path><path d="M529.371762 311.197373l117.679679-68.366289a45.20394 45.20394 0 0 1 50.060562-4.483036c17.184969 8.218898 21.294418 19.0529 25.030281 39.600146v56.037942l-8.218898-4.856621V280.189712a37.358628 37.358628 0 0 0-52.675666-33.996352l-29.513316 15.317038-92.649399 55.290769z" fill="#BDC3C7" p-id="8500"></path><path d="M539.085005 673.949653V316.801167l-9.713243-5.603794v357.148486l9.713243 5.603794z" fill="#A6AEB3" p-id="8501"></path><path d="M302.604889 463.620576v-13.822692l2.241517-4.483035 2.615104-4.10945 3.362277-3.735862 3.362276-3.362277 3.735863-2.615104L523.020795 314.55965l9.713244 5.603794-201.736593 116.55892-3.735863 2.615104-3.362276 3.362277-3.362277 3.735862-2.615104 4.10945-2.241517 4.483035v338.469172l2.241517 1.867931-9.713243-5.603794-2.241518-1.867931v-10.08683q-3.362277-157.279825-3.362276-314.186064z" fill="#BDC3C7" p-id="8502"></path><path d="M330.997446 436.722364l94.143743-54.543597 101.615469-58.653046 5.603794-3.362277v356.401313l-5.603794 4.109449-101.241882 59.026633-94.51733 54.543597c-10.460416 5.977381-18.679314 0-18.679314-10.834002v-314.186063a41.468077 41.468077 0 0 1 18.679314-32.502007z" fill="#E6EAEB" p-id="8503"></path><path d="M571.587012 372.465524l142.336374-82.188983v7.09814l-142.336374 82.188982v-7.098139zM571.587012 411.318497l135.611821-78.079533v7.098139l-135.611821 78.45312v-7.471726zM571.587012 452.786574l113.57023-65.377599v7.098139l-113.57023 65.3776v-7.09814zM571.587012 491.639548l161.015688-92.649398v7.098139l-161.015688 93.022984v-7.471725zM571.587012 530.866107l145.325064-84.056913v7.471725L571.587012 537.964247v-7.09814zM571.587012 572.334185l130.755199-75.464429v7.098139l-130.755199 75.464429v-7.098139z" fill="#3E566E" p-id="8504"></path><path d="M355.654141 618.285297l140.468442-81.068223v7.471726l-140.468442 81.068223v-7.471726zM355.654141 657.885443l142.70996-82.188982v7.09814l-142.70996 82.562568v-7.471726zM355.654141 700.100693l128.887267-74.34367v7.471726l-128.887267 74.34367v-7.471726zM454.280919 479.684787l34.743525-20.17366v7.471726l-34.743525 20.173659v-7.471725zM454.280919 521.900036l39.600146-22.788763v7.09814l-39.600146 22.788763v-7.09814zM454.280919 440.084641l49.686976-28.766144v7.471726l-49.686976 28.766143v-7.471725z" fill="#4A637D" p-id="8505"></path><path d="M443.446917 510.692448v22.041591a5.977381 5.977381 0 0 1-2.615104 4.483035l-78.079533 45.20394h-2.615104v-41.094491c2.98869-4.109449 6.724553-5.977381 9.713244-5.230208l26.151039 7.471726a9.713243 9.713243 0 0 0 9.339657-4.856622l19.800073-25.403867c2.98869-3.735863 6.724553-5.603794 9.339657-4.856622z" fill="#3D566E" p-id="8506"></path><path d="M443.446917 510.692448l-8.592484-2.98869c-2.615104 0-6.350967 0-9.339657 4.856621l-19.800073 25.403868a9.713243 9.713243 0 0 1-9.339657 4.856621l-26.15104-7.471725c-2.615104 0-6.724553 0-9.713244 5.230208v-45.203941L443.446917 448.303539z" fill="#6EBCC6" p-id="8507"></path><path d="M419.537395 468.103612c7.471726-4.483035 13.449106 0 13.449106 7.845312a29.886903 29.886903 0 0 1-13.449106 23.535936c-7.471726 4.483035-13.449106 0-13.449106-7.845312a29.886903 29.886903 0 0 1 13.449106-23.535936z" fill="#FFCB05" p-id="8508"></path></svg>